<svg width="104" height="103" viewBox="0 0 104 103" fill="none" xmlns="http://www.w3.org/2000/svg">
<g clip-path="url(#clip0_2249_1074)">
<path d="M28.5544 62.7288V97.8058C32.7707 99.9176 37.2632 101.441 41.9035 102.334V72.4069L52.0242 64.977L62.0643 72.4069V102.334C66.71 101.443 71.2081 99.919 75.4295 97.8058V62.7288L51.9919 45.8122L28.5544 62.7288ZM104 51.9666C104.008 43.7872 102.039 35.7241 98.2563 28.448C94.4735 21.1719 88.9865 14.8932 82.2517 10.1342C75.5168 5.37515 67.7289 2.27342 59.5358 1.08699C51.3426 -0.0994402 42.9811 0.66373 35.1467 3.31302C27.3124 5.9623 20.2317 10.4211 14.4938 16.3185C8.75585 22.2159 4.52648 29.3815 2.15753 37.2191C-0.211422 45.0566 -0.651474 53.3396 0.873983 61.3791C2.39944 69.4185 5.8463 76.9819 10.9278 83.4402V54.2944L51.9919 25.1168L93.0722 54.2944V83.4402C100.173 74.4499 104.02 63.3692 104 51.9666ZM15.2215 56.4947V88.3829C16.9817 90.1076 18.8643 91.706 20.8549 93.1661V58.8863L51.9274 36.469L83.016 58.8863V93.1501C85.0066 91.6901 86.8892 90.0916 88.6494 88.3669V56.4788L51.9919 30.3783L15.2215 56.4947Z" fill="#7172CC"/>
</g>
<defs>
<clipPath id="clip0_2249_1074">
<rect width="104" height="101.739" fill="white" transform="translate(0 0.594788)"/>
</clipPath>
</defs>
</svg>
