<svg width="25" height="25" viewBox="0 0 25 25" fill="none" xmlns="http://www.w3.org/2000/svg">
<path fill-rule="evenodd" clip-rule="evenodd" d="M19.3642 18.3629C16.6137 21.1137 12.5408 21.708 9.20778 20.1666C8.71574 19.9685 8.31234 19.8084 7.92884 19.8084C6.86064 19.8147 5.53105 20.8505 4.84002 20.1603C4.149 19.4692 5.18554 18.1385 5.18554 17.0639C5.18554 16.6804 5.03177 16.2841 4.83369 15.7911C3.29155 12.4587 3.8867 8.38442 6.63723 5.63449C10.1484 2.12199 15.853 2.12199 19.3642 5.63358C22.8818 9.15151 22.8754 14.8513 19.3642 18.3629Z" stroke="#6C757D" stroke-width="1.5" stroke-linecap="round" stroke-linejoin="round"/>
<path d="M16.5454 12.3709H16.5535" stroke="#6C757D" stroke-width="2" stroke-linecap="round" stroke-linejoin="round"/>
<path d="M12.9374 12.3709H12.9455" stroke="#6C757D" stroke-width="2" stroke-linecap="round" stroke-linejoin="round"/>
<path d="M9.32925 12.3709H9.33735" stroke="#6C757D" stroke-width="2" stroke-linecap="round" stroke-linejoin="round"/>
</svg>
