<svg width="25" height="25" viewBox="0 0 25 25" fill="none" xmlns="http://www.w3.org/2000/svg">
<path fill-rule="evenodd" clip-rule="evenodd" d="M16.0338 2.5C19.1778 2.5 21.2898 4.653 21.2898 7.857V17.053C21.2898 20.285 19.2428 22.387 16.0748 22.407L8.38176 22.41C5.23776 22.41 3.12476 20.257 3.12476 17.053V7.857C3.12476 4.624 5.17176 2.523 8.33976 2.504L16.0328 2.5H16.0338ZM16.0338 4L8.34476 4.004C6.01676 4.018 4.62476 5.458 4.62476 7.857V17.053C4.62476 19.468 6.02976 20.91 8.38076 20.91L16.0698 20.907C18.3978 20.893 19.7898 19.451 19.7898 17.053V7.857C19.7898 5.442 18.3858 4 16.0338 4ZM15.8409 15.9737C16.2549 15.9737 16.5909 16.3097 16.5909 16.7237C16.5909 17.1377 16.2549 17.4737 15.8409 17.4737H8.62086C8.20686 17.4737 7.87086 17.1377 7.87086 16.7237C7.87086 16.3097 8.20686 15.9737 8.62086 15.9737H15.8409ZM15.8409 11.7872C16.2549 11.7872 16.5909 12.1232 16.5909 12.5372C16.5909 12.9512 16.2549 13.2872 15.8409 13.2872H8.62086C8.20686 13.2872 7.87086 12.9512 7.87086 12.5372C7.87086 12.1232 8.20686 11.7872 8.62086 11.7872H15.8409ZM11.3756 7.6104C11.7896 7.6104 12.1256 7.9464 12.1256 8.3604C12.1256 8.7744 11.7896 9.1104 11.3756 9.1104H8.62056C8.20656 9.1104 7.87056 8.7744 7.87056 8.3604C7.87056 7.9464 8.20656 7.6104 8.62056 7.6104H11.3756Z" fill="#636F85"/>
</svg>
