<svg width="25" height="25" viewBox="0 0 25 25" fill="none" xmlns="http://www.w3.org/2000/svg">
<path d="M13.547 16.9256V17.9913C13.547 18.0758 13.5303 18.1593 13.498 18.2373C13.4657 18.3154 13.4183 18.3864 13.3586 18.4461C13.2989 18.5059 13.2279 18.5531 13.15 18.5854C13.0719 18.6177 12.9882 18.6344 12.9037 18.6344C12.8193 18.6344 12.7356 18.6177 12.6576 18.5854C12.5795 18.5531 12.5087 18.5059 12.449 18.4461C12.3893 18.3864 12.3418 18.3154 12.3096 18.2373C12.2772 18.1593 12.2605 18.0758 12.2605 17.9913V16.897C11.8346 16.827 11.4268 16.673 11.0609 16.444C10.695 16.2148 10.3783 15.9151 10.1294 15.5624C10.0387 15.4473 9.98812 15.3058 9.98535 15.1593C9.98655 15.0769 10.0043 14.9956 10.0375 14.9202C10.0708 14.8449 10.1188 14.777 10.1788 14.7206C10.2388 14.6641 10.3096 14.6204 10.3868 14.5919C10.4641 14.5633 10.5463 14.5505 10.6286 14.5544C10.71 14.5546 10.7904 14.572 10.8648 14.605C10.9392 14.6381 11.0058 14.6863 11.0605 14.7466C11.37 15.1474 11.7858 15.4533 12.2605 15.6297V13.1817C10.9837 12.6825 10.3406 11.9336 10.3406 10.964C10.3598 10.4449 10.5638 9.94977 10.9159 9.56782C11.2679 9.18586 11.7447 8.94229 12.2605 8.88086V7.82476C12.2605 7.7403 12.2772 7.65671 12.3096 7.57868C12.3418 7.50064 12.3893 7.42981 12.449 7.37008C12.5087 7.31035 12.5795 7.26295 12.6576 7.23063C12.7356 7.19831 12.8193 7.18164 12.9037 7.18164C12.9882 7.18164 13.0719 7.19831 13.15 7.23063C13.2279 7.26295 13.2989 7.31035 13.3586 7.37008C13.4183 7.42981 13.4657 7.50064 13.498 7.57868C13.5303 7.65671 13.547 7.7403 13.547 7.82476V8.87125C13.9042 8.92723 14.2465 9.05467 14.5533 9.24601C14.8601 9.43736 15.1252 9.68859 15.3325 9.98476C15.424 10.0927 15.478 10.2277 15.4861 10.3689C15.4887 10.4516 15.4748 10.5339 15.4452 10.6113C15.4156 10.6886 15.3709 10.7593 15.3137 10.8191C15.2565 10.879 15.1879 10.9269 15.1121 10.96C15.0363 10.9932 14.9546 11.0108 14.8717 11.0121C14.7851 11.0097 14.7 10.9888 14.6221 10.9506C14.5443 10.9125 14.4755 10.8582 14.4205 10.7913C14.1917 10.5053 13.8899 10.2865 13.547 10.1578V12.3178L13.787 12.4136C15.0062 12.8936 15.7646 13.5849 15.7646 14.6793C15.7503 15.2656 15.5129 15.8245 15.1009 16.2419C14.6888 16.6593 14.1331 16.9037 13.547 16.9256ZM12.2605 11.7609V10.196C12.1056 10.2521 11.9722 10.3556 11.8792 10.4918C11.7863 10.6278 11.7383 10.7896 11.7422 10.9544C11.7393 11.125 11.787 11.2928 11.8792 11.4362C11.9715 11.5797 12.1041 11.6926 12.2605 11.7609ZM14.3629 14.7081C14.3629 14.2473 14.0462 13.9689 13.547 13.7481V15.6681C13.7759 15.6334 13.9846 15.5171 14.1345 15.3407C14.2845 15.1643 14.3656 14.9396 14.3629 14.7081Z" fill="#636F85"/>
<path d="M18.6354 4.31055H7.11539C6.09696 4.31055 5.12024 4.71518 4.4001 5.43531C3.67995 6.15546 3.27539 7.13211 3.27539 8.15055V17.7506C3.27539 18.7689 3.67995 19.7456 4.4001 20.4657C5.12024 21.1859 6.09696 21.5906 7.11539 21.5906H18.6354C19.6539 21.5906 20.6306 21.1859 21.3507 20.4657C22.0708 19.7456 22.4754 18.7689 22.4754 17.7506V8.15055C22.4754 7.13211 22.0708 6.15546 21.3507 5.43531C20.6306 4.71518 19.6539 4.31055 18.6354 4.31055Z" stroke="#636F85" stroke-width="1.44" stroke-linecap="round" stroke-linejoin="round"/>
</svg>
