<svg width="24" height="24" viewBox="0 0 24 24" fill="none" xmlns="http://www.w3.org/2000/svg">
<path d="M11.2238 5.67383H5.69967C5.28107 5.67383 4.87962 5.84012 4.58362 6.13611C4.28763 6.43211 4.12134 6.83356 4.12134 7.25216V18.3005C4.12134 18.7191 4.28763 19.1206 4.58362 19.4165C4.87962 19.7125 5.28107 19.8788 5.69967 19.8788H16.748C17.1666 19.8788 17.5681 19.7125 17.8641 19.4165C18.1601 19.1206 18.3263 18.7191 18.3263 18.3005V12.7763" stroke="#2D2D2D" stroke-width="1.5" stroke-linecap="round" stroke-linejoin="round"/>
<path d="M17.1425 4.49033C17.4564 4.17638 17.8822 4 18.3262 4C18.7702 4 19.196 4.17638 19.51 4.49033C19.8239 4.80428 20.0003 5.23008 20.0003 5.67408C20.0003 6.11807 19.8239 6.54388 19.51 6.85783L12.0129 14.3549L8.8562 15.1441L9.64537 11.9874L17.1425 4.49033Z" stroke="#2D2D2D" stroke-width="1.5" stroke-linecap="round" stroke-linejoin="round"/>
</svg>
