<svg width="102" height="101" viewBox="0 0 102 101" fill="none" xmlns="http://www.w3.org/2000/svg">
<path d="M49.9291 61.3959C49.9197 61.3959 49.9102 61.3959 49.9007 61.3959C48.1585 61.3802 46.7571 59.9551 46.7729 58.2113L46.7871 56.6332C46.7871 56.5432 46.7918 56.4517 46.8013 56.3617C47.2384 51.771 50.2858 48.9572 52.7366 46.6957C53.5667 45.9287 54.3526 45.2044 55.0217 44.4485C55.8376 43.5284 57.0212 41.6441 55.7761 39.3701C54.3416 36.7441 50.8381 36.0008 48.1159 36.6241C45.2721 37.2743 44.2242 39.703 43.8518 41.0918C43.4004 42.7756 41.6692 43.7746 39.9854 43.3248C38.3015 42.8735 37.3025 41.1423 37.7523 39.4584C39.0101 34.7603 42.2736 31.4857 46.705 30.471C52.6688 29.1091 58.6751 31.5189 61.3122 36.3401C63.5073 40.3548 62.9061 45.0655 59.7419 48.6352C58.8629 49.6263 57.9239 50.4943 57.0149 51.3322C54.7503 53.4233 53.3347 54.8215 53.0949 56.8399L53.0822 58.2649C53.0696 60.0025 51.6588 61.3959 49.9291 61.3959Z" fill="#7172CC"/>
<path d="M49.9277 70.8569C49.1071 70.8569 48.2865 70.5255 47.7026 69.9416C47.1029 69.3576 46.7715 68.537 46.7715 67.7006C46.7715 66.88 47.1029 66.0594 47.7026 65.4755C48.8704 64.3077 50.9851 64.3077 52.1529 65.4755C52.7526 66.0594 53.084 66.88 53.084 67.7006C53.084 68.537 52.7526 69.3419 52.1687 69.9416C51.569 70.5255 50.7641 70.8569 49.9277 70.8569Z" fill="#7172CC"/>
<path d="M50.8794 91.5263C47.2891 91.5263 43.7305 91.0592 40.3012 90.136C25.5236 86.1607 13.9528 73.9192 10.8234 58.9475C7.63401 43.695 13.5204 27.6612 25.8219 18.0993C32.9329 12.5712 41.9014 9.52539 51.0766 9.52539C57.4286 9.52539 63.7364 11.0025 69.3198 13.7942C83.1078 20.6922 92.0163 35.1036 92.0163 50.5109C92.0163 63.0822 86.0842 75.1991 76.1483 82.9224C69.012 88.4711 60.0372 91.5263 50.8794 91.5263ZM51.0782 15.8379C43.2996 15.8379 35.7057 18.4102 29.6978 23.0831C19.2869 31.1757 14.3032 44.746 17.0033 57.655C19.6514 70.3195 29.4405 80.6767 41.9424 84.0397C44.8367 84.8177 47.8446 85.2138 50.8794 85.2138H50.8809C58.6422 85.2138 66.2393 82.6304 72.2756 77.9387C80.6854 71.4021 85.7054 61.149 85.7054 50.5109C85.7054 37.474 78.1667 25.2782 66.4981 19.4408C61.7858 17.0846 56.4549 15.8379 51.0782 15.8379Z" fill="#7172CC"/>
</svg>
