<svg width="25" height="25" viewBox="0 0 25 25" fill="none" xmlns="http://www.w3.org/2000/svg">
<g clip-path="url(#clip0_2007_8420)">
<path d="M19.3749 9.20977L14.0419 5.06177C13.5739 4.69768 12.9979 4.5 12.4049 4.5C11.812 4.5 11.2359 4.69768 10.7679 5.06177L5.43391 9.20977C5.11335 9.45905 4.854 9.7783 4.67566 10.1431C4.49732 10.5079 4.40472 10.9087 4.40491 11.3148V18.5148C4.40491 19.0452 4.61562 19.5539 4.99069 19.929C5.36577 20.3041 5.87447 20.5148 6.40491 20.5148H18.4049C18.9353 20.5148 19.4441 20.3041 19.8191 19.929C20.1942 19.5539 20.4049 19.0452 20.4049 18.5148V11.3148C20.4049 10.4918 20.0249 9.71477 19.3749 9.20977Z" stroke="#636F85" stroke-width="1.5" stroke-linecap="round" stroke-linejoin="round"/>
<path d="M16.375 15.5C14.165 16.833 10.583 16.833 8.375 15.5" stroke="#636F85" stroke-width="1.5" stroke-linecap="round" stroke-linejoin="round"/>
</g>
<defs>
<clipPath id="clip0_2007_8420">
<rect width="24" height="24" fill="white" transform="translate(0.375 0.5)"/>
</clipPath>
</defs>
</svg>
