<svg width="158" height="158" viewBox="0 0 158 158" fill="none" xmlns="http://www.w3.org/2000/svg">
<circle cx="79" cy="79" r="79" fill="#7172CC" fill-opacity="0.1"/>
<circle cx="79" cy="79" r="61" fill="#7172CC"/>
<path d="M79 108C80.4505 108 81.9011 107.278 82.8681 106.075C89.6374 97.1701 101 81.2863 101 72.1411C101 59.8672 91.0879 50 79 50C66.9121 50 57 59.8672 57 72.1411C57 81.2863 68.3626 97.1701 75.3736 106.075C76.0989 107.278 77.5494 108 79 108ZM71.7473 70.2158C71.7473 66.1245 74.8901 62.9958 79 62.9958C83.1099 62.9958 86.2527 66.1245 86.2527 70.2158C86.2527 73.1037 84.5604 75.751 81.9011 76.7137V83.6929C81.9011 85.3776 80.4505 86.8216 78.7582 86.8216C77.0659 86.8216 75.6154 85.3776 75.6154 83.6929V76.7137C73.4396 75.5104 71.7473 73.1037 71.7473 70.2158Z" fill="white" fill-opacity="0.4"/>
</svg>
