<svg width="24" height="24" viewBox="0 0 24 24" fill="none" xmlns="http://www.w3.org/2000/svg">
<path d="M15 19.751H9C8.27082 19.7504 7.57165 19.4605 7.05604 18.9449C6.54043 18.4293 6.25053 17.7302 6.25 17.001V14.001C6.25159 12.7417 6.75254 11.5344 7.643 10.644C8.53345 9.75352 9.74071 9.25256 11 9.25098H13C14.2593 9.25256 15.4666 9.75352 16.357 10.644C17.2475 11.5344 17.7484 12.7417 17.75 14.001V17.001C17.7495 17.7302 17.4596 18.4293 16.944 18.9449C16.4283 19.4605 15.7292 19.7504 15 19.751ZM11 10.751C10.1384 10.752 9.31234 11.0948 8.70307 11.704C8.09381 12.3133 7.75106 13.1393 7.75 14.001V17.001C7.75053 17.3323 7.8824 17.65 8.1167 17.8843C8.35101 18.1186 8.66864 18.2504 9 18.251H15C15.3314 18.2504 15.649 18.1186 15.8833 17.8843C16.1176 17.65 16.2495 17.3323 16.25 17.001V14.001C16.2489 13.1393 15.9062 12.3133 15.2969 11.704C14.6877 11.0948 13.8616 10.752 13 10.751H11Z" fill="#7172CC"/>
<path d="M12 10.7505C11.0605 10.7505 10.1422 10.4719 9.36104 9.94997C8.57991 9.42804 7.97109 8.68619 7.61157 7.81824C7.25206 6.95029 7.15799 5.99522 7.34127 5.07381C7.52455 4.1524 7.97695 3.30603 8.64125 2.64173C9.30554 1.97743 10.1519 1.52504 11.0733 1.34176C11.9947 1.15848 12.9498 1.25255 13.8177 1.61206C14.6857 1.97158 15.4275 2.5804 15.9495 3.36153C16.4714 4.14267 16.75 5.06103 16.75 6.00049C16.7484 7.25978 16.2475 8.46704 15.357 9.35749C14.4666 10.2479 13.2593 10.7489 12 10.7505ZM12 2.75049C11.3572 2.75049 10.7289 2.9411 10.1944 3.29821C9.65994 3.65533 9.24338 4.16291 8.99739 4.75677C8.75141 5.35063 8.68705 6.0041 8.81245 6.63453C8.93785 7.26497 9.24739 7.84407 9.70191 8.29859C10.1564 8.75311 10.7355 9.06264 11.366 9.18804C11.9964 9.31345 12.6499 9.24908 13.2437 9.0031C13.8376 8.75711 14.3452 8.34055 14.7023 7.80609C15.0594 7.27163 15.25 6.64328 15.25 6.00049C15.2489 5.13886 14.9062 4.31283 14.2969 3.70356C13.6877 3.0943 12.8616 2.75155 12 2.75049Z" fill="#7172CC"/>
<path d="M12 22.7501C6.658 22.7501 1.25 21.2901 1.25 18.5001C1.25 16.8331 3.291 15.4611 6.85 14.7351C6.94652 14.7154 7.04598 14.7149 7.14269 14.7337C7.2394 14.7524 7.33148 14.79 7.41366 14.8443C7.49584 14.8987 7.56651 14.9686 7.62165 15.0503C7.67679 15.1319 7.7153 15.2236 7.735 15.3201C7.7547 15.4166 7.75519 15.5161 7.73645 15.6128C7.71772 15.7095 7.68011 15.8016 7.62579 15.8838C7.57147 15.966 7.50149 16.0366 7.41986 16.0918C7.33822 16.1469 7.24652 16.1854 7.15 16.2051C4.261 16.7941 2.75 17.8051 2.75 18.5051C2.75 19.6261 6.35 21.2551 12 21.2551C17.65 21.2551 21.25 19.6261 21.25 18.5051C21.25 17.8111 19.739 16.7991 16.85 16.2051C16.6551 16.1653 16.4839 16.0498 16.3742 15.8838C16.2645 15.7178 16.2252 15.5151 16.265 15.3201C16.3048 15.1252 16.4204 14.954 16.5863 14.8443C16.7523 14.7346 16.9551 14.6953 17.15 14.7351C20.709 15.4611 22.75 16.8351 22.75 18.5001C22.75 21.2901 17.342 22.7501 12 22.7501Z" fill="#7172CC"/>
</svg>
