<svg width="20" height="24" viewBox="0 0 20 24" fill="none" xmlns="http://www.w3.org/2000/svg">
<path d="M0.666992 20.1673V17.834H3.00033V9.66732C3.00033 8.05343 3.48644 6.6194 4.45866 5.36523C5.43088 4.11107 6.69477 3.28954 8.25033 2.90065V2.08398C8.25033 1.59787 8.42047 1.18468 8.76074 0.844401C9.10102 0.504123 9.51422 0.333984 10.0003 0.333984C10.4864 0.333984 10.8996 0.504123 11.2399 0.844401C11.5802 1.18468 11.7503 1.59787 11.7503 2.08398V2.90065C13.3059 3.28954 14.5698 4.11107 15.542 5.36523C16.5142 6.6194 17.0003 8.05343 17.0003 9.66732V17.834H19.3337V20.1673H0.666992ZM10.0003 23.6673C9.35866 23.6673 8.80935 23.4388 8.35241 22.9819C7.89547 22.525 7.66699 21.9756 7.66699 21.334H12.3337C12.3337 21.9756 12.1052 22.525 11.6482 22.9819C11.1913 23.4388 10.642 23.6673 10.0003 23.6673Z" fill="#7172CC"/>
</svg>
