<svg width="26" height="26" viewBox="0 0 26 26" fill="none" xmlns="http://www.w3.org/2000/svg">
<path d="M14.075 12.9819C17.6464 12.9819 20.5659 10.0624 20.5659 6.49094C20.5659 2.91949 17.6464 0 14.075 0C10.5035 0 7.58411 2.91949 7.58411 6.49094C7.58411 10.0624 10.5036 12.9819 14.075 12.9819Z" fill="white"/>
<path d="M25.2145 18.1691C25.0444 17.744 24.8177 17.3472 24.5626 16.9787C23.2587 15.0512 21.2463 13.7757 18.9787 13.4639C18.6953 13.4356 18.3835 13.4922 18.1567 13.6623C16.9662 14.541 15.549 14.9945 14.075 14.9945C12.6011 14.9945 11.1839 14.541 9.9934 13.6623C9.76662 13.4922 9.45482 13.4072 9.1714 13.4639C6.90382 13.7757 4.86303 15.0512 3.58753 16.9787C3.33243 17.3472 3.10565 17.7723 2.93562 18.1691C2.8506 18.3392 2.87892 18.5376 2.96394 18.7077C3.19072 19.1045 3.47414 19.5014 3.72924 19.8415C4.12605 20.3801 4.55123 20.8619 5.03311 21.3154C5.42992 21.7122 5.88342 22.0807 6.33698 22.4492C8.57619 24.1216 11.269 25.0002 14.0467 25.0002C16.8245 25.0002 19.5173 24.1215 21.7565 22.4492C22.21 22.1091 22.6635 21.7122 23.0603 21.3154C23.5139 20.8619 23.9674 20.38 24.3642 19.8415C24.6476 19.473 24.9028 19.1045 25.1295 18.7077C25.2712 18.5376 25.2995 18.3392 25.2145 18.1691Z" fill="white"/>
</svg>
