<svg width="120" height="121" viewBox="0 0 120 121" fill="none" xmlns="http://www.w3.org/2000/svg">
<path d="M0 60.5C0 27.3629 26.8629 0.5 60 0.5C93.1371 0.5 120 27.3629 120 60.5C120 93.6371 93.1371 120.5 60 120.5C26.8629 120.5 0 93.6371 0 60.5Z" fill="#7172CC" fill-opacity="0.2"/>
<path d="M80 58.6714V60.5114C79.9975 64.8243 78.601 69.0208 76.0187 72.4751C73.4363 75.9294 69.8066 78.4564 65.6707 79.6792C61.5349 80.9021 57.1145 80.7552 53.0689 79.2606C49.0234 77.766 45.5693 75.0036 43.2219 71.3856C40.8745 67.7675 39.7596 63.4876 40.0434 59.1841C40.3271 54.8806 41.9944 50.7841 44.7966 47.5056C47.5987 44.2271 51.3856 41.9422 55.5924 40.9917C59.7992 40.0413 64.2005 40.4761 68.14 42.2314M80 44.5L60 64.52L54 58.52" stroke="#7172CC" stroke-width="4" stroke-linecap="round" stroke-linejoin="round"/>
</svg>
