<svg width="45" height="44" viewBox="0 0 45 44" fill="none" xmlns="http://www.w3.org/2000/svg">
<path d="M17.0026 19.7083C14.2159 19.7083 11.9609 17.4533 11.9609 14.6667C11.9609 11.88 14.2159 9.625 17.0026 9.625C19.7893 9.625 22.0443 11.88 22.0443 14.6667C22.0443 17.4533 19.7893 19.7083 17.0026 19.7083ZM17.0026 12.375C15.7376 12.375 14.7109 13.4017 14.7109 14.6667C14.7109 15.9317 15.7376 16.9583 17.0026 16.9583C18.2676 16.9583 19.2943 15.9317 19.2943 14.6667C19.2943 13.4017 18.2676 12.375 17.0026 12.375Z" fill="#2D2D2D"/>
<path d="M28.0013 41.7087H17.0013C7.0463 41.7087 2.79297 37.4553 2.79297 27.5003V16.5003C2.79297 6.54533 7.0463 2.29199 17.0013 2.29199H24.3346C25.0863 2.29199 25.7096 2.91533 25.7096 3.66699C25.7096 4.41866 25.0863 5.04199 24.3346 5.04199H17.0013C8.54964 5.04199 5.54297 8.04866 5.54297 16.5003V27.5003C5.54297 35.952 8.54964 38.9587 17.0013 38.9587H28.0013C36.453 38.9587 39.4596 35.952 39.4596 27.5003V18.3337C39.4596 17.582 40.083 16.9587 40.8346 16.9587C41.5863 16.9587 42.2096 17.582 42.2096 18.3337V27.5003C42.2096 37.4553 37.9563 41.7087 28.0013 41.7087Z" fill="#2D2D2D"/>
<path d="M33.5 16.0419C32.7483 16.0419 32.125 15.4185 32.125 14.6669V3.66688C32.125 3.11688 32.455 2.60355 32.9683 2.40188C33.4817 2.20021 34.0683 2.31021 34.4717 2.69521L38.1383 6.36188C38.67 6.89355 38.67 7.77355 38.1383 8.30521C37.6067 8.83688 36.7267 8.83688 36.195 8.30521L34.875 6.98521V14.6669C34.875 15.4185 34.2517 16.0419 33.5 16.0419Z" fill="#2D2D2D"/>
<path d="M29.8353 8.70896C29.4869 8.70896 29.1386 8.58063 28.8636 8.30563C28.3319 7.77396 28.3319 6.89396 28.8636 6.36229L32.5303 2.69563C33.0619 2.16396 33.9419 2.16396 34.4736 2.69563C35.0053 3.22729 35.0053 4.10729 34.4736 4.63896L30.8069 8.30563C30.5319 8.58063 30.1836 8.70896 29.8353 8.70896Z" fill="#2D2D2D"/>
<path d="M5.3957 36.1173C4.9557 36.1173 4.5157 35.8973 4.25903 35.5123C3.83737 34.889 4.00237 34.0273 4.6257 33.6057L13.664 27.5373C15.644 26.2173 18.3757 26.364 20.1724 27.8857L20.7774 28.4173C21.694 29.2057 23.2524 29.2057 24.1507 28.4173L31.7774 21.8723C33.7207 20.204 36.7824 20.204 38.744 21.8723L41.7324 24.439C42.3007 24.934 42.374 25.7957 41.879 26.3823C41.384 26.9507 40.504 27.024 39.9357 26.529L36.9474 23.9623C36.0307 23.174 34.4907 23.174 33.574 23.9623L25.9474 30.5073C24.004 32.1757 20.9424 32.1757 18.9807 30.5073L18.3757 29.9757C17.5324 29.2607 16.1391 29.1873 15.2041 29.829L6.18403 35.8973C5.92737 36.044 5.65237 36.1173 5.3957 36.1173Z" fill="#2D2D2D"/>
</svg>
