<svg width="24" height="24" viewBox="0 0 24 24" fill="none" xmlns="http://www.w3.org/2000/svg">
<path d="M9.02294 21.231L7.35369 18.4158L4.17694 17.731L4.48844 14.454L2.34619 12.0003L4.48844 9.54653L4.17694 6.26953L7.35369 5.58478L9.02294 2.76953L11.9999 4.02728L14.9769 2.76953L16.6462 5.58478L19.8229 6.26953L19.5114 9.54653L21.6537 12.0003L19.5114 14.454L19.8229 17.731L16.6462 18.4158L14.9769 21.231L11.9999 19.9733L9.02294 21.231ZM9.44994 19.9503L11.9999 18.8888L14.5614 19.9503L15.9999 17.5503L18.7499 16.9388L18.4999 14.1003L20.3499 12.0003L18.4999 9.88878L18.7499 7.05028L15.9999 6.45028L14.5499 4.05028L11.9999 5.11178L9.43844 4.05028L7.99994 6.45028L5.24994 7.05028L5.49994 9.88878L3.64994 12.0003L5.49994 14.1003L5.24994 16.9503L7.99994 17.5503L9.44994 19.9503ZM10.9499 14.858L15.9077 9.90028L15.1999 9.18103L10.9499 13.431L8.79994 11.2925L8.09219 12.0003L10.9499 14.858Z" fill="#2D2D2D"/>
</svg>
